<svg width="12" height="12" viewBox="0 0 12 12" fill="none" xmlns="http://www.w3.org/2000/svg">
<path d="M2.05961 0.350984C1.59229 -0.116995 0.834606 -0.116995 0.367281 0.350984C-0.100045 0.818964 -0.100045 1.57771 0.367281 2.04569L4.30767 5.9916L0.350494 9.95431C-0.116831 10.4223 -0.116831 11.181 0.350494 11.649C0.817819 12.117 1.5755 12.117 2.04283 11.649L6.00001 7.6863L9.95717 11.649C10.4245 12.117 11.1822 12.117 11.6495 11.649C12.1168 11.181 12.1168 10.4223 11.6495 9.9543L7.69234 5.9916L11.6327 2.0457C12.1 1.57772 12.1 0.818978 11.6327 0.350998C11.1654 -0.116981 10.4077 -0.116981 9.94039 0.350998L6.00001 4.29689L2.05961 0.350984Z" fill="#FF4949"/>
</svg>
